<svg xmlns="http://www.w3.org/2000/svg"  width="86" height="86" viewBox="0 0 200 200"><g id="bc6c6dfb-7585-470c-a685-6837dcabc572" data-name="图层 8"><path d="M110,133.68H90v-7.5c0-20.44,11.78-28.06,19.57-33.1C116.51,88.59,120,86.33,120,76.77c0-9.22-5.24-20-20-20S80,67.49,80,76.7c0,1.76.86,6.82,4,9.7L70.48,101.14C60.29,91.8,60,78.28,60,76.77c0-19.88,13.74-40,40-40s40,20.12,40,40c0,20.44-11.78,28.06-19.57,33.1-6.94,4.5-10.43,6.75-10.43,16.31Z"/><rect x="90" y="138.44" width="20" height="20"/></g></svg>