<svg xmlns="http://www.w3.org/2000/svg" viewBox="0 0 297.77 319.35"><defs><style>.b4c9ec67-56be-4843-998a-5bfac310f1dd{fill:#9fa0a0;}.a896a837-9622-43a4-9f18-ae740cbb32e5{fill:#f39800;}.bef300b5-79f6-4c24-9dec-b87c92b0bbf9{fill:#c9caca;}</style></defs><g id="b053088d-4f04-4447-a0fd-2fe96ece2f26" data-name="图层 1"><polygon class="b4c9ec67-56be-4843-998a-5bfac310f1dd" points="278.75 194.63 254.05 169.19 265.36 169.19 278.75 169.19 278.75 194.63"/><polygon class="a896a837-9622-43a4-9f18-ae740cbb32e5" points="243.24 79.68 243.24 116.51 221.94 116.51 243.24 79.68"/><path class="bef300b5-79f6-4c24-9dec-b87c92b0bbf9" d="M435.25,335.83v-39c0-32.55-12.75-49.1-35.54-50.89a135.33,135.33,0,0,0-86.35,22.29c-31.53,21-88.18,88.6-88.18,151,0,1.63,0,3.07.06,4.43v.11c.13,4.83.45,9.64,1,14.35a46.15,46.15,0,0,0,45.18,36.47h84.67c5.65,0,37.23,1.26,56.38-15.14s22.82-40.37,22.82-47.06V387.8H451.6v58.61A91.57,91.57,0,0,1,360.05,538H245.38a91.59,91.59,0,0,1-90-74.9q-1.17-9.93-1.44-20.11v-.06c-.05-1.87-.07-3.75-.07-5.64A218.54,218.54,0,0,1,372.47,218.61h1.68a78.24,78.24,0,0,1,77.45,78.24v39Z" transform="translate(-153.83 -218.61)"/><path class="bef300b5-79f6-4c24-9dec-b87c92b0bbf9" d="M435.25,335.83v-39c0-32.55-12.75-49.1-35.54-50.89a135.33,135.33,0,0,0-86.35,22.29c-31.53,21-88.18,88.6-88.18,151,0,1.63,0,3.07.06,4.43v.11c.13,4.83.45,9.64,1,14.35a46.15,46.15,0,0,0,45.18,36.47h84.67c5.65,0,37.23,1.26,56.38-15.14s22.82-40.37,22.82-47.06V387.8H451.6v58.61A91.57,91.57,0,0,1,360.05,538H245.38a91.59,91.59,0,0,1-90-74.9q-1.17-9.93-1.44-20.11v-.06c-.05-1.87-.07-3.75-.07-5.64A218.54,218.54,0,0,1,372.47,218.61h1.68a78.24,78.24,0,0,1,77.45,78.24v39Z" transform="translate(-153.83 -218.61)"/></g><g id="ab59daae-c47a-4f49-8205-a853a3503448" data-name="图层 3"><path class="a896a837-9622-43a4-9f18-ae740cbb32e5" d="M226.2,438.14c.27,1.25.58,2.47.94,3.67l-71.37,23.41c-.16-.72-.3-1.44-.43-2.16q-1.17-9.93-1.44-20.11v-.06c-.05-1.87-.07-3.75-.07-5.64A218.51,218.51,0,0,1,259.78,249.86l32.11,36.36c-30.6,30.09-66.71,83.22-66.71,133,0,1.63,0,3.07.06,4.43v.11C225.37,428.62,225.69,433.43,226.2,438.14Z" transform="translate(-153.83 -218.61)"/></g></svg>