<svg id="bdff61c1-38ad-4da9-b788-f7c64f0d1b07" data-name="goodjin5" xmlns="http://www.w3.org/2000/svg" width="50" height="50" viewBox="0 0 64 64">
  <defs>
    <style>
      .a29983c2-86f9-4836-a6a4-99984e6c3fd9 {
        fill: #9fa0a0;
      }

      .ff4bc569-4573-42c7-b67e-2910b4e71db5 {
        fill: #f39800;
      }

      .b45d8e92-555a-4670-bffa-def7b93cb3f5 {
        fill: #c9caca;
      }
    </style>
  </defs>
  <g id="e92441a6-0f8b-4dac-9e4b-b97b4f5e9814" data-name="b053088d-4f04-4447-a0fd-2fe96ece2f26">
    <polygon class="a29983c2-86f9-4836-a6a4-99984e6c3fd9" points="59.91 39 54.6 33.9 57.03 33.9 59.91 33.9 59.91 39"/>
    <polygon class="ff4bc569-4573-42c7-b67e-2910b4e71db5" points="52.28 15.97 52.28 23.35 47.7 23.35 52.28 15.97"/>
    <path class="b45d8e92-555a-4670-bffa-def7b93cb3f5" d="M60.49,23.57V15.75c0-6.52-2.74-9.83-7.64-10.19A30.72,30.72,0,0,0,34.29,10c-6.78,4.21-18.95,17.76-18.95,30.26,0,.33,0,.62,0,.89v0c0,1,.09,1.93.21,2.88a9.78,9.78,0,0,0,9.71,7.3h18.2c1.22,0,8,.26,12.12-3a13.35,13.35,0,0,0,4.9-9.43V34H64V45.73c0,10.13-8.81,18.35-19.68,18.35H19.68c-9.49,0-17.62-6.31-19.35-15C.17,47.75.06,46.4,0,45H0c0-.37,0-.75,0-1.13C0,19.71,21,.1,47,.08h.4C56.57.17,64,7.16,64,15.76v7.81Z" transform="translate(0 -0.08)"/>
    <path class="b45d8e92-555a-4670-bffa-def7b93cb3f5" d="M60.49,23.57V15.75c0-6.52-2.74-9.83-7.64-10.19A30.72,30.72,0,0,0,34.29,10c-6.78,4.21-18.95,17.76-18.95,30.26,0,.33,0,.62,0,.89v0c0,1,.09,1.93.21,2.88a9.78,9.78,0,0,0,9.71,7.3h18.2c1.22,0,8,.26,12.12-3a13.35,13.35,0,0,0,4.9-9.43V34H64V45.73c0,10.13-8.81,18.35-19.68,18.35H19.68c-9.49,0-17.62-6.31-19.35-15C.17,47.75.06,46.4,0,45H0c0-.37,0-.75,0-1.13C0,19.71,21,.1,47,.08h.4C56.57.17,64,7.16,64,15.76v7.81Z" transform="translate(0 -0.08)"/>
  </g>
  <g id="faf4044d-0408-4b74-b9a1-256840f3079a" data-name="ab59daae-c47a-4f49-8205-a853a3503448">
    <path class="ff4bc569-4573-42c7-b67e-2910b4e71db5" d="M15.55,44.07c.06.25.13.5.21.74L.42,49.5c0-.15-.07-.29-.1-.44C.16,47.74.05,46.39,0,45H0c0-.37,0-.75,0-1.13C0,28.52,8.64,14.26,22.77,6.34l6.9,7.29c-6.57,6-14.33,16.67-14.33,26.65,0,.33,0,.61,0,.89v0C15.38,42.16,15.44,43.13,15.55,44.07Z" transform="translate(0 -0.08)"/>
  </g>
</svg>
