<svg id="b4ed8d09-e3ff-4867-844d-36e9a7a6e0ae" data-name="图层 3" xmlns="http://www.w3.org/2000/svg" viewBox="0 0 200 200"><path d="M72.07,106.06,48.48,132.39,46,130.08l-6-5.58,6-5.4,20.59-18.51c.53.64,1.09,1.26,1.66,1.87s1.27,1.31,2,1.94S71.43,105.52,72.07,106.06Z"/><path d="M140.73,66.39a40.68,40.68,0,0,0-3.76-12,41.16,41.16,0,0,0-73.9,0,40.68,40.68,0,0,0-3.76,12,41.37,41.37,0,0,0-.46,6.14A40.93,40.93,0,0,0,66.9,97c.49.67,1,1.33,1.54,2s1.09,1.27,1.67,1.87,1.16,1.19,1.76,1.75,1.23,1.12,1.87,1.65,1.3,1,2,1.55a41.16,41.16,0,0,0,65-39.35ZM100,103.7a31,31,0,0,1-17.59-5.46q-1-.7-2-1.5c-.65-.52-1.28-1.07-1.88-1.65q-.51-.48-1-1a32.72,32.72,0,0,1-3.17-3.88A31.15,31.15,0,1,1,100,103.7Z"/><path d="M166,54.39v108H34v-108H60.3a43.41,43.41,0,0,0-3.52,12H46v49.36l-9.7,8.72,9.7,9v16.89H154v-84H143.26a43.41,43.41,0,0,0-3.52-12Z"/></svg>