<svg xmlns="http://www.w3.org/2000/svg" width="86" height="86" viewBox="0 0 200 200"><g id="bbe488d6-7e5d-46f3-825e-0f3914720adb" data-name="图层 4"><path d="M153.73,80.47a3.5,3.5,0,0,1-3.5,3.5h-25l-4.79-4.56L105,100.55,99.07,76l-3.45,8H80.54a3.5,3.5,0,1,1,0-7H91l9.91-23,7.35,30.25,11.24-15.41,5.83,5.55L128.07,77h22.16A3.5,3.5,0,0,1,153.73,80.47Z"/><path d="M104,140.84V156h22.68a4,4,0,0,1,0,8h-50a4,4,0,0,1,0-8H96V140.84A46.65,46.65,0,0,1,53.4,94.42a4,4,0,0,1,8,0,38.59,38.59,0,1,0,77.18,0,4,4,0,1,1,8,0A46.65,46.65,0,0,1,104,140.84Z"/><path d="M125.35,67.47V59.41a25.36,25.36,0,0,0-50.72,0V92.79a25.36,25.36,0,0,0,50.72,0V89h8v3.82a33.36,33.36,0,0,1-66.72,0V59.41a33.36,33.36,0,0,1,66.72,0V72h-3.28Z"/></g></svg>