<svg xmlns="http://www.w3.org/2000/svg" width="86" height="86" viewBox="0 0 200 200"><g id="a69c8d06-6338-48e4-ab8d-2027d1d9bc47" data-name="图层 6"><path d="M144,104V40H40V144h64v16h56V104ZM52,132V52h80v80Zm100,20H112v-8h32V112h8Z"/><path d="M87.71,108H71.49l-3.17,12.61H54.91l17-54.86H87.71l17,54.86H90.89ZM85.21,97.8,84,93.16c-1.48-5.46-2.88-12-4.35-17.62h-.3c-1.32,5.75-2.8,12.16-4.2,17.62L74,97.8Z"/><path d="M106.24,113.55c0-5.31,4.16-8.18,14-9.24-.18-2-1.24-3.23-3.81-3.23-2,0-4.07.8-6.59,2.21l-2.74-5.18a20.94,20.94,0,0,1,10.84-3.31c6.5,0,10.17,3.62,10.17,11.5v14.29h-6.41l-.58-2.53h-.17a10.77,10.77,0,0,1-7.21,3.15C109.07,121.21,106.24,117.75,106.24,113.55Zm14-.44v-4c-4.91.67-6.5,2.08-6.5,3.85,0,1.46,1.06,2.17,2.69,2.17A5,5,0,0,0,120.22,113.11Z"/></g></svg>